#!OML:ASF F:\VICON\USERDATA\INSTALL\rory3\rory3.ASF
:FULLY-SPECIFIED
:DEGREES
830
root 2.13833 16.5855 22.0209 397.955 25.6748 -360.203
lowerback -16.1385 -6.64962 10.0149
upperback -13.6747 -9.74729 3.50642
thorax -7.02432 -5.5606 -2.55764
lowerneck 2.45771 -19.0241 -17.5641
upperneck 7.45394 -27.479 17.4413
head 6.72318 -13.577 5.61737
rclavicle 3.44581e-014 2.73329e-014
rhumerus -34.1887 -380.901 -417.824
rradius 24.0241
rwrist -6.35727
rhand 0.903971 12.6323
rfingers 7.12502
rthumb 26.4559 -15.5411
lclavicle 3.44581e-014 2.73329e-014
lhumerus -31.3223 3.33488 88.9537
lradius 33.0534
lwrist -9.01147
lhand 2.94293 14.1922
lfingers 7.12502
lthumb 28.406 42.0565
rfemur -64.642 6.25338 381.603
rtibia 42.3188
rfoot 137.434 143.216
rtoes 40.8279
lfemur -23.2561 -0.823824 -19.1192
ltibia 38.5014
lfoot -217.932 -159.182
ltoes 47.2923
831
root 2.1408 16.5885 22.0197 397.693 25.7727 -360.189
lowerback -15.4664 -6.70785 10.0135
upperback -13.9846 -9.72627 3.51483
thorax -7.73903 -5.57797 -2.40901
lowerneck 3.07642 -18.8923 -17.9844
upperneck 7.59987 -27.4086 17.4136
head 6.71025 -13.5872 5.72729
rclavicle 1.65675e-014 -4.47266e-014
rhumerus -34.7114 -379.707 -417.635
rradius 24.4701
rwrist -7.21282
rhand 0.55295 12.5054
rfingers 7.12502
rthumb 26.1199 -15.7182
lclavicle 1.65675e-014 -4.47266e-014
lhumerus -32.0815 3.40418 88.9234
lradius 34.1146
lwrist -8.63909
lhand 3.16042 14.7591
lfingers 7.12502
lthumb 28.6138 42.5886
rfemur -64.3165 6.23678 381.604
rtibia 42.3324
rfoot 137.112 143.426
rtoes 40.9932
lfemur -22.8953 -0.609117 -19.0821
ltibia 38.4021
lfoot -217.35 -158.479
ltoes 47.2568
832
root 2.14255 16.589 22.0235 397.315 25.68 -360.086
lowerback -15.5163 -6.69724 9.6919
upperback -13.5023 -9.72341 3.40898
thorax -7.10085 -5.52227 -2.42752
lowerneck 2.8847 -18.9811 -18.0692
upperneck 7.28781 -27.5205 17.85
head 6.74316 -13.6251 5.8264
rclavicle -2.61464e-014 3.23025e-014
rhumerus -34.1192 -379.945 -417.713
rradius 24.4795
rwrist -7.48349
rhand -0.139073 12.6394
rfingers 7.12502
rthumb 25.4572 -15.6804
lclavicle -2.61464e-014 3.23025e-014
lhumerus -31.3021 3.23712 88.8821
lradius 34.4335
lwrist -8.13413
lhand 2.74877 14.5737
lfingers 7.12502
lthumb 28.2205 42.4688
rfemur -63.825 6.22586 381.542
rtibia 42.3631
rfoot 136.898 143.775
rtoes 41.326
lfemur -22.3464 -0.054633 -19.2341
ltibia 38.3011
lfoot -217.048 -157.586
ltoes 46.352
833
root 2.13902 16.5891 22.0218 397.298 25.6832 -359.93
lowerback -14.5481 -6.77839 9.49211
upperback -14.1626 -9.66321 3.43595
thorax -8.33625 -5.5233 -2.07042
lowerneck 3.72965 -18.8186 -18.5224
upperneck 7.53351 -27.4437 17.6818
head 6.70605 -13.6487 5.92329
rclavicle 2.41477e-014 -3.45388e-014
rhumerus -34.9913 -378.747 -417.258
rradius 24.672
rwrist -8.0156
rhand -0.4893 12.8587
rfingers 7.12502
rthumb 25.1216 -15.5085
lclavicle 2.41477e-014 -3.45388e-014
lhumerus -32.3382 3.10574 88.9889
lradius 35.0221
lwrist -7.03743
lhand 2.29796 14.7755
lfingers 7.12502
lthumb 27.7895 42.741
rfemur -63.7547 6.41978 381.223
rtibia 42.3848
rfoot 136.485 143.704
rtoes 41.5156
lfemur -22.2607 0.105067 -19.353
ltibia 38.2487
lfoot -217.169 -156.853
ltoes 45.2813
834
root 2.13664 16.5923 22.0178 397.531 25.908 -359.857
lowerback -15.6971 -6.75087 9.40025
upperback -13.3135 -9.79756 3.35651
thorax -6.74421 -5.52344 -2.38841
lowerneck 2.77472 -19.0755 -18.163
upperneck 7.02399 -27.6571 18.2631
head 6.78119 -13.68 5.9219
rclavicle -1.22364e-013 -1.61016e-014
rhumerus -33.6525 -379.832 -417.679
rradius 24.6236
rwrist -7.79006
rhand -0.650937 13.0182
rfingers 7.12502
rthumb 24.9667 -15.3706
lclavicle -1.22364e-013 -1.61016e-014
lhumerus -30.5463 2.26605 88.952
lradius 35.2803
lwrist -5.88619
lhand 1.847 15.4507
lfingers 7.12502
lthumb 27.3583 43.4851
rfemur -63.9551 6.64598 380.887
rtibia 42.3324
rfoot 135.789 143.656
rtoes 41.9662
lfemur -22.592 -0.176143 -19.2706
ltibia 38.3135
lfoot -217.253 -156.475
ltoes 45.1088
835
root 2.14035 16.5974 22.0116 397.694 26.275 -359.881
lowerback -15.3178 -6.7938 9.68257
upperback -13.7374 -9.80972 3.42623
thorax -7.486 -5.58054 -2.34866
lowerneck 3.0014 -19.0452 -18.4296
upperneck 7.40094 -27.6803 18.0409
head 6.86977 -13.7077 5.89407
rclavicle 9.3435e-014 -1.04362e-014
rhumerus -34.0144 -378.984 -417.438
rradius 24.7088
rwrist -8.23055
rhand -0.882198 13.1876
rfingers 7.12502
rthumb 24.7451 -15.2319
lclavicle 9.3435e-014 -1.04362e-014
lhumerus -31.0586 2.05422 88.9737
lradius 35.7367
lwrist -5.60499
lhand 1.58941 15.6349
lfingers 7.12502
lthumb 27.1119 43.7079
rfemur -64.067 6.60903 380.856
rtibia 42.2061
rfoot 135.421 143.668
rtoes 42.4186
lfemur -22.9548 -0.37572 -19.0441
ltibia 38.4889
lfoot -217.142 -156.34
ltoes 45.5103
836
root 2.15206 16.6059 21.9969 397.683 26.9092 -360.19
lowerback -15.3978 -6.73571 10.4182
upperback -13.7104 -9.81136 3.45423
thorax -7.56731 -5.64095 -2.70342
lowerneck 3.02984 -19.1761 -18.3025
upperneck 7.31201 -27.8437 17.9993
head 6.84179 -13.7877 5.84246
rclavicle 5.33985e-014 -1.74931e-014
rhumerus -33.9536 -378.799 -417.366
rradius 24.7033
rwrist -8.57343
rhand -1.11278 13.4285
rfingers 7.12502
rthumb 24.5241 -15.0211
lclavicle 5.33985e-014 -1.74931e-014
lhumerus -30.8766 2.08435 88.7343
lradius 36.1816
lwrist -6.19885
lhand 1.90173 15.4295
lfingers 7.12502
lthumb 27.4106 43.4556
rfemur -64.0417 5.99842 381.646
rtibia 42.0248
rfoot 135.853 143.828
rtoes 42.3943
lfemur -23.3433 -0.432506 -18.4722
ltibia 38.7285
lfoot -216.531 -155.763
ltoes 45.3957
837
root 2.15942 16.6142 21.9856 397.722 27.359 -360.351
lowerback -16.1041 -6.67491 10.8231
upperback -13.1376 -9.89951 3.42206
thorax -6.6334 -5.66985 -3.12141
lowerneck 2.3662 -19.4043 -18.0195
upperneck 7.0005 -28.0595 18.3266
head 6.90307 -13.8418 5.80007
rclavicle 3.45388e-015 9.93923e-016
rhumerus -33.1013 -379.597 -417.558
rradius 24.6497
rwrist -8.37817
rhand -1.15842 13.5227
rfingers 7.12502
rthumb 24.4804 -14.9328
lclavicle 3.45388e-015 9.93923e-016
lhumerus -29.7561 2.11131 88.3544
lradius 36.4626
lwrist -7.07322
lhand 2.4411 15.207
lfingers 7.12502
lthumb 27.9264 43.1504
rfemur -64.0219 5.61043 382.111
rtibia 41.8628
rfoot 136.11 143.905
rtoes 42.398
lfemur -23.7119 -0.352987 -18.1268
ltibia 38.9256
lfoot -215.413 -154.345
ltoes 44.4664
838
root 2.16064 16.6197 21.9812 397.87 27.4361 -360.232
lowerback -15.5131 -6.73142 10.7885
upperback -13.6702 -9.85666 3.45914
thorax -7.54632 -5.69149 -2.90695
lowerneck 2.70536 -19.3048 -18.3359
upperneck 7.42997 -28.0053 18.0674
head 6.9773 -13.8402 5.79311
rclavicle -6.49032e-014 -3.8266e-014
rhumerus -33.6484 -378.732 -417.274
rradius 24.8951
rwrist -8.57075
rhand -1.10568 13.296
rfingers 7.12502
rthumb 24.5309 -15.1527
lclavicle -6.49032e-014 -3.8266e-014
lhumerus -30.577 2.20629 88.251
lradius 36.8794
lwrist -7.11314
lhand 2.24652 14.9893
lfingers 7.12502
lthumb 27.7403 42.9627
rfemur -64.0727 5.6616 381.9
rtibia 41.7477
rfoot 135.882 143.759
rtoes 42.5899
lfemur -23.9774 -0.225749 -18.2056
ltibia 39.0564
lfoot -214.35 -152.851
ltoes 43.1335
839
root 2.16023 16.6227 21.9761 397.972 27.5727 -360.168
lowerback -15.496 -6.75368 10.7487
upperback -13.7123 -9.87577 3.46777
thorax -7.59702 -5.69998 -2.87044
lowerneck 2.8404 -19.2854 -18.5575
upperneck 7.38181 -28.0284 18.2892
head 7.01185 -13.8588 5.88941
rclavicle 2.48046e-014 3.29983e-014
rhumerus -33.7083 -378.161 -417.361
rradius 25.2854
rwrist -9.00609
rhand -1.0275 13.4185
rfingers 7.12502
rthumb 24.6058 -15.02
lclavicle 2.48046e-014 3.29983e-014
lhumerus -30.5025 2.03059 88.1784
lradius 37.2581
lwrist -6.13406
lhand 1.56264 14.9619
lfingers 7.12502
lthumb 27.0862 43.0389
rfemur -64.159 5.78422 381.688
rtibia 41.6775
rfoot 135.717 143.464
rtoes 42.7555
lfemur -24.113 -0.278067 -18.1583
ltibia 39.1282
lfoot -214.563 -153.174
ltoes 43.3023
840
root 2.15878 16.6224 21.9695 398.017 27.7519 -360.203
lowerback -15.5416 -6.79147 10.7767
upperback -13.6915 -9.93258 3.53904
thorax -7.54803 -5.72397 -2.82119
lowerneck 2.93649 -19.2736 -18.6748
upperneck 7.28193 -28.0218 18.3671
head 6.99248 -13.8642 5.9376
rclavicle -1.52257e-014 3.61788e-014
rhumerus -33.7176 -377.507 -417.528
rradius 25.7442
rwrist -9.39279
rhand -1.08603 13.3916
rfingers 7.12502
rthumb 24.5497 -15.0546
lclavicle -1.52257e-014 3.61788e-014
lhumerus -30.4168 2.04613 88.0339
lradius 37.7356
lwrist -5.50668
lhand 1.37067 15.0015
lfingers 7.12502
lthumb 26.9026 43.107
rfemur -64.2656 6.02289 381.501
rtibia 41.6414
rfoot 135.519 143.016
rtoes 42.893
lfemur -24.1921 -0.440539 -17.9871
ltibia 39.1592
lfoot -215.604 -154.58
ltoes 44.2765
